<svg width="21" height="21" viewBox="0 0 21 21" fill="none" xmlns="http://www.w3.org/2000/svg">
<path d="M9 20H2C0.89 20 0 19.1 0 18L0.00999999 4C0.00999999 2.9 0.89 2 2 2H3V1C3 0.45 3.45 0 4 0C4.55 0 5 0.45 5 1V2H13V1C13 0.45 13.45 0 14 0C14.55 0 15 0.45 15 1V2H16C17.1 2 18 2.9 18 4V10H16V8H2V18H9V20ZM19.13 14.99L19.84 14.28C20.23 13.89 20.23 13.26 19.84 12.87L19.13 12.16C18.74 11.77 18.11 11.77 17.72 12.16L17.01 12.87L19.13 14.99ZM18.42 15.7L13.41 20.71C13.23 20.89 12.97 21 12.71 21H11.5C11.22 21 11 20.78 11 20.5V19.29C11 19.02 11.11 18.77 11.29 18.58L16.3 13.57L18.42 15.7Z" fill="#0F2408" fill-opacity="0.7"/>
</svg>
