<svg width="303" height="43" viewBox="0 0 303 43" fill="none" xmlns="http://www.w3.org/2000/svg">
<path d="M0.0640259 24.752C0.0640259 22.064 0.608026 19.712 1.69603 17.696C2.78403 15.648 4.27203 14.064 6.16003 12.944C8.08003 11.824 10.224 11.264 12.592 11.264C14.64 11.264 16.544 11.744 18.304 12.704C20.064 13.632 21.408 14.864 22.336 16.4V2.48H26.752V38H22.336V33.056C21.472 34.624 20.192 35.92 18.496 36.944C16.8 37.936 14.816 38.432 12.544 38.432C10.208 38.432 8.08003 37.856 6.16003 36.704C4.27203 35.552 2.78403 33.936 1.69603 31.856C0.608026 29.776 0.0640259 27.408 0.0640259 24.752ZM22.336 24.8C22.336 22.816 21.936 21.088 21.136 19.616C20.336 18.144 19.248 17.024 17.872 16.256C16.528 15.456 15.04 15.056 13.408 15.056C11.776 15.056 10.288 15.44 8.94403 16.208C7.60003 16.976 6.52803 18.096 5.72803 19.568C4.92803 21.04 4.52803 22.768 4.52803 24.752C4.52803 26.768 4.92803 28.528 5.72803 30.032C6.52803 31.504 7.60003 32.64 8.94403 33.44C10.288 34.208 11.776 34.592 13.408 34.592C15.04 34.592 16.528 34.208 17.872 33.44C19.248 32.64 20.336 31.504 21.136 30.032C21.936 28.528 22.336 26.784 22.336 24.8Z" fill="white"/>
<path d="M58.1335 23.84C58.1335 24.672 58.0855 25.552 57.9895 26.48H36.9655C37.1255 29.072 38.0055 31.104 39.6055 32.576C41.2375 34.016 43.2055 34.736 45.5095 34.736C47.3975 34.736 48.9655 34.304 50.2135 33.44C51.4935 32.544 52.3895 31.36 52.9015 29.888H57.6055C56.9015 32.416 55.4935 34.48 53.3815 36.08C51.2695 37.648 48.6455 38.432 45.5095 38.432C43.0135 38.432 40.7735 37.872 38.7895 36.752C36.8375 35.632 35.3015 34.048 34.1815 32C33.0615 29.92 32.5015 27.52 32.5015 24.8C32.5015 22.08 33.0455 19.696 34.1335 17.648C35.2215 15.6 36.7415 14.032 38.6935 12.944C40.6775 11.824 42.9495 11.264 45.5095 11.264C48.0055 11.264 50.2135 11.808 52.1335 12.896C54.0535 13.984 55.5255 15.488 56.5495 17.408C57.6055 19.296 58.1335 21.44 58.1335 23.84ZM53.6215 22.928C53.6215 21.264 53.2535 19.84 52.5175 18.656C51.7815 17.44 50.7735 16.528 49.4935 15.92C48.2455 15.28 46.8535 14.96 45.3175 14.96C43.1095 14.96 41.2215 15.664 39.6535 17.072C38.1175 18.48 37.2375 20.432 37.0135 22.928H53.6215Z" fill="white"/>
<path d="M73.6912 33.968L81.8512 11.696H86.5072L76.1871 38H71.0992L60.7792 11.696H65.4832L73.6912 33.968Z" fill="white"/>
<path d="M92.1974 38.288C91.3654 38.288 90.6614 38 90.0854 37.424C89.5094 36.848 89.2214 36.144 89.2214 35.312C89.2214 34.48 89.5094 33.776 90.0854 33.2C90.6614 32.624 91.3654 32.336 92.1974 32.336C92.9974 32.336 93.6694 32.624 94.2134 33.2C94.7894 33.776 95.0774 34.48 95.0774 35.312C95.0774 36.144 94.7894 36.848 94.2134 37.424C93.6694 38 92.9974 38.288 92.1974 38.288Z" fill="#65CA3F"/>
<path d="M111.588 15.296H106.068V38H101.7V15.296H98.2915V11.696H101.7V9.824C101.7 6.88 102.452 4.736 103.956 3.392C105.492 2.016 107.94 1.32799 111.3 1.32799V4.976C109.38 4.976 108.02 5.36 107.22 6.128C106.452 6.864 106.068 8.096 106.068 9.824V11.696H111.588V15.296Z" fill="white"/>
<path d="M118.936 7.424C118.104 7.424 117.4 7.136 116.824 6.56C116.248 5.984 115.96 5.27999 115.96 4.44799C115.96 3.616 116.248 2.912 116.824 2.336C117.4 1.76 118.104 1.472 118.936 1.472C119.736 1.472 120.408 1.76 120.952 2.336C121.528 2.912 121.816 3.616 121.816 4.44799C121.816 5.27999 121.528 5.984 120.952 6.56C120.408 7.136 119.736 7.424 118.936 7.424ZM121.048 11.696V38H116.68V11.696H121.048Z" fill="white"/>
<path d="M141.309 11.216C144.509 11.216 147.101 12.192 149.085 14.144C151.069 16.064 152.061 18.848 152.061 22.496V38H147.741V23.12C147.741 20.496 147.085 18.496 145.773 17.12C144.461 15.712 142.669 15.008 140.397 15.008C138.093 15.008 136.253 15.728 134.877 17.168C133.533 18.608 132.861 20.704 132.861 23.456V38H128.493V11.696H132.861V15.44C133.725 14.096 134.893 13.056 136.365 12.32C137.869 11.584 139.517 11.216 141.309 11.216Z" fill="white"/>
<path d="M157.564 24.752C157.564 22.064 158.108 19.712 159.196 17.696C160.284 15.648 161.772 14.064 163.66 12.944C165.58 11.824 167.708 11.264 170.044 11.264C172.348 11.264 174.348 11.76 176.044 12.752C177.74 13.744 179.004 14.992 179.836 16.496V11.696H184.252V38H179.836V33.104C178.972 34.64 177.676 35.92 175.948 36.944C174.252 37.936 172.268 38.432 169.996 38.432C167.66 38.432 165.548 37.856 163.66 36.704C161.772 35.552 160.284 33.936 159.196 31.856C158.108 29.776 157.564 27.408 157.564 24.752ZM179.836 24.8C179.836 22.816 179.436 21.088 178.636 19.616C177.836 18.144 176.748 17.024 175.372 16.256C174.028 15.456 172.54 15.056 170.908 15.056C169.276 15.056 167.788 15.44 166.444 16.208C165.1 16.976 164.028 18.096 163.228 19.568C162.428 21.04 162.028 22.768 162.028 24.752C162.028 26.768 162.428 28.528 163.228 30.032C164.028 31.504 165.1 32.64 166.444 33.44C167.788 34.208 169.276 34.592 170.908 34.592C172.54 34.592 174.028 34.208 175.372 33.44C176.748 32.64 177.836 31.504 178.636 30.032C179.436 28.528 179.836 26.784 179.836 24.8Z" fill="white"/>
<path d="M204.45 11.216C207.65 11.216 210.242 12.192 212.226 14.144C214.21 16.064 215.202 18.848 215.202 22.496V38H210.882V23.12C210.882 20.496 210.226 18.496 208.914 17.12C207.602 15.712 205.81 15.008 203.538 15.008C201.234 15.008 199.394 15.728 198.018 17.168C196.674 18.608 196.002 20.704 196.002 23.456V38H191.634V11.696H196.002V15.44C196.866 14.096 198.034 13.056 199.506 12.32C201.01 11.584 202.658 11.216 204.45 11.216Z" fill="white"/>
<path d="M220.705 24.8C220.705 22.08 221.249 19.712 222.337 17.696C223.425 15.648 224.929 14.064 226.849 12.944C228.801 11.824 231.025 11.264 233.521 11.264C236.753 11.264 239.409 12.048 241.489 13.616C243.601 15.184 244.993 17.36 245.665 20.144H240.961C240.513 18.544 239.633 17.28 238.321 16.352C237.041 15.424 235.441 14.96 233.521 14.96C231.025 14.96 229.009 15.824 227.473 17.552C225.937 19.248 225.169 21.664 225.169 24.8C225.169 27.968 225.937 30.416 227.473 32.144C229.009 33.872 231.025 34.736 233.521 34.736C235.441 34.736 237.041 34.288 238.321 33.392C239.601 32.496 240.481 31.216 240.961 29.552H245.665C244.961 32.24 243.553 34.4 241.441 36.032C239.329 37.632 236.689 38.432 233.521 38.432C231.025 38.432 228.801 37.872 226.849 36.752C224.929 35.632 223.425 34.048 222.337 32C221.249 29.952 220.705 27.552 220.705 24.8Z" fill="white"/>
<path d="M275.493 23.84C275.493 24.672 275.445 25.552 275.349 26.48H254.325C254.485 29.072 255.365 31.104 256.965 32.576C258.597 34.016 260.565 34.736 262.869 34.736C264.757 34.736 266.325 34.304 267.573 33.44C268.853 32.544 269.749 31.36 270.261 29.888H274.965C274.261 32.416 272.853 34.48 270.741 36.08C268.629 37.648 266.005 38.432 262.869 38.432C260.373 38.432 258.133 37.872 256.149 36.752C254.197 35.632 252.661 34.048 251.541 32C250.421 29.92 249.861 27.52 249.861 24.8C249.861 22.08 250.405 19.696 251.493 17.648C252.581 15.6 254.101 14.032 256.053 12.944C258.037 11.824 260.309 11.264 262.869 11.264C265.365 11.264 267.573 11.808 269.493 12.896C271.413 13.984 272.885 15.488 273.909 17.408C274.965 19.296 275.493 21.44 275.493 23.84ZM270.981 22.928C270.981 21.264 270.613 19.84 269.877 18.656C269.141 17.44 268.133 16.528 266.853 15.92C265.605 15.28 264.213 14.96 262.677 14.96C260.469 14.96 258.581 15.664 257.013 17.072C255.477 18.48 254.597 20.432 254.373 22.928H270.981Z" fill="white"/>
<path d="M302.859 28.832C302.859 30.368 302.475 31.84 301.707 33.248C300.939 34.624 299.803 35.776 298.299 36.704C296.827 37.632 295.051 38.16 292.971 38.288V42.176H290.379V38.288C287.467 38.032 285.099 37.104 283.275 35.504C281.451 33.872 280.523 31.808 280.491 29.312H285.147C285.275 30.656 285.771 31.824 286.635 32.816C287.531 33.808 288.779 34.432 290.379 34.688V22.688C288.235 22.144 286.507 21.584 285.195 21.008C283.883 20.432 282.763 19.536 281.835 18.32C280.907 17.104 280.443 15.472 280.443 13.424C280.443 10.832 281.339 8.68799 283.131 6.992C284.955 5.29599 287.371 4.35199 290.379 4.16V0.175995H292.971V4.16C295.691 4.384 297.883 5.264 299.547 6.8C301.211 8.304 302.171 10.272 302.427 12.704H297.771C297.611 11.584 297.115 10.576 296.283 9.68C295.451 8.752 294.347 8.144 292.971 7.856V19.568C295.083 20.112 296.795 20.672 298.107 21.248C299.451 21.792 300.571 22.672 301.467 23.888C302.395 25.104 302.859 26.752 302.859 28.832ZM284.907 13.184C284.907 14.752 285.371 15.952 286.299 16.784C287.227 17.616 288.587 18.304 290.379 18.848V7.75999C288.715 7.92 287.387 8.464 286.395 9.392C285.403 10.288 284.907 11.552 284.907 13.184ZM292.971 34.736C294.699 34.544 296.043 33.92 297.003 32.864C297.995 31.808 298.491 30.544 298.491 29.072C298.491 27.504 298.011 26.304 297.051 25.472C296.091 24.608 294.731 23.92 292.971 23.408V34.736Z" fill="#65CA3F"/>
</svg>
